<svg width="24" height="15" viewBox="0 0 24 15" fill="none" xmlns="http://www.w3.org/2000/svg">
<path d="M23.9999 1V8.37813C23.9999 9.71438 22.3843 10.3837 21.4374 9.44063L19.4124 7.41562L13.4124 13.4156C13.0374 13.7906 12.5287 14.0013 11.9984 14.0013C11.468 14.0013 10.9594 13.7906 10.5843 13.4156L5.99994 8.82812L3.12119 11.7075C3.02833 11.8004 2.91808 11.8741 2.79674 11.9243C2.6754 11.9746 2.54534 12.0005 2.414 12.0005C2.28266 12.0005 2.15261 11.9746 2.03127 11.9243C1.90993 11.8741 1.79968 11.8004 1.70682 11.7075L0.293066 10.2938C0.200183 10.2009 0.126503 10.0906 0.0762339 9.9693C0.0259649 9.84796 9.15527e-05 9.7179 9.15527e-05 9.58656C9.15527e-05 9.45522 0.0259649 9.32517 0.0762339 9.20383C0.126503 9.08249 0.200183 8.97224 0.293066 8.87938L4.58619 4.58625C4.96125 4.21127 5.46989 4.00061 6.00025 4.00061C6.53061 4.00061 7.03926 4.21127 7.41432 4.58625L11.9999 9.17188L16.5856 4.58562L14.5624 2.5625C13.6174 1.6175 14.2868 0 15.6249 0H22.9999C23.2652 0 23.5195 0.105357 23.707 0.292893C23.8946 0.48043 23.9999 0.734784 23.9999 1Z" fill="#19C1CE"/>
</svg>
