<svg width="24" height="26" viewBox="0 0 24 26" fill="none" xmlns="http://www.w3.org/2000/svg">
<path d="M20.8001 19.184C20.1082 19.1874 19.4361 19.4155 18.8851 19.834L14.0851 16.954C14.2871 16.3837 14.3935 15.784 14.4001 15.179C14.4005 14.4435 14.2559 13.7151 13.9746 13.0355C13.6933 12.3559 13.2809 11.7384 12.7608 11.2183C12.2407 10.6982 11.6232 10.2857 10.9436 10.0045C10.264 9.72318 9.53561 9.5786 8.80009 9.57899C8.38925 9.58103 7.97997 9.62968 7.58009 9.72399L5.54009 5.35399C6.03669 4.81459 6.33246 4.12067 6.37768 3.38888C6.4229 2.65709 6.21482 1.93204 5.78842 1.3356C5.36201 0.739157 4.74327 0.307693 4.03621 0.113727C3.32914 -0.0802383 2.57685 -0.0248789 1.9058 0.2705C1.23474 0.565879 0.685831 1.08327 0.351326 1.7357C0.0168217 2.38814 -0.0828808 3.13584 0.0689771 3.85313C0.220835 4.57042 0.614995 5.21356 1.1852 5.67446C1.75541 6.13536 2.46691 6.3859 3.20009 6.38399C3.25509 6.38399 3.30509 6.36899 3.36009 6.36899L5.41009 10.759C4.07509 11.779 3.20009 13.374 3.20009 15.184C3.19718 16.3052 3.53179 17.4014 4.16039 18.3299C4.78899 19.2584 5.68248 19.9761 6.72461 20.3899C7.76674 20.8036 8.90927 20.8941 10.0035 20.6496C11.0978 20.4051 12.0932 19.8369 12.8601 19.019L17.6501 21.894C17.5513 22.5391 17.6525 23.1989 17.94 23.7847C18.2276 24.3705 18.6877 24.8542 19.2585 25.1706C19.8292 25.4869 20.4832 25.6209 21.1324 25.5543C21.7816 25.4878 22.3948 25.224 22.8895 24.7984C23.3842 24.3728 23.7366 23.8058 23.8994 23.1739C24.0621 22.5419 24.0273 21.8752 23.7997 21.2636C23.5721 20.652 23.1626 20.1248 22.6263 19.753C22.09 19.3812 21.4527 19.1826 20.8001 19.184ZM8.80009 17.584C8.32542 17.584 7.8614 17.4432 7.46672 17.1795C7.07205 16.9158 6.76443 16.541 6.58278 16.1024C6.40113 15.6639 6.3536 15.1813 6.44621 14.7158C6.53881 14.2502 6.76739 13.8226 7.10304 13.4869C7.43868 13.1513 7.86632 12.9227 8.33187 12.8301C8.79743 12.7375 9.27999 12.785 9.71853 12.9667C10.1571 13.1483 10.5319 13.4559 10.7956 13.8506C11.0593 14.2453 11.2001 14.7093 11.2001 15.184C11.2001 15.8205 10.9472 16.431 10.4971 16.881C10.0471 17.3311 9.43661 17.584 8.80009 17.584Z" fill="#19C1CE"/>
</svg>
