<svg width="32" height="16" viewBox="0 0 32 16" fill="none" xmlns="http://www.w3.org/2000/svg">
<path d="M3.2 8.98408C2.5671 8.98408 1.94841 9.17176 1.42218 9.52338C0.895939 9.875 0.485787 10.3748 0.243587 10.9595C0.0013865 11.5442 -0.0619842 12.1876 0.0614885 12.8084C0.184961 13.4291 0.489732 13.9993 0.93726 14.4468C1.38479 14.8944 1.95497 15.1991 2.57571 15.3226C3.19645 15.4461 3.83986 15.3827 4.42459 15.1405C5.00931 14.8983 5.50908 14.4881 5.8607 13.9619C6.21233 13.4357 6.4 12.817 6.4 12.1841C6.39921 11.3356 6.06181 10.5222 5.46187 9.92222C4.86192 9.32228 4.04845 8.98488 3.2 8.98408ZM7.6 12.9841H10V11.3841H7.6V12.9841ZM22.32 7.64408L23.28 8.92408L25.68 7.12408L24.72 5.84408L22.32 7.64408ZM28.8 0.184082C28.1671 0.184082 27.5484 0.371759 27.0222 0.723379C26.4959 1.075 26.0858 1.57477 25.8436 2.1595C25.6014 2.74422 25.538 3.38763 25.6615 4.00837C25.785 4.62911 26.0897 5.1993 26.5373 5.64682C26.9848 6.09435 27.555 6.39912 28.1757 6.5226C28.7965 6.64607 29.4399 6.5827 30.0246 6.3405C30.6093 6.0983 31.1091 5.68814 31.4607 5.16191C31.8123 4.63567 32 4.01698 32 3.38408C31.9992 2.53563 31.6618 1.72216 31.0619 1.12222C30.4619 0.522273 29.6484 0.184876 28.8 0.184082Z" fill="#19C1CE"/>
</svg>
