<svg width="14" height="16" viewBox="0 0 14 16" fill="none" xmlns="http://www.w3.org/2000/svg">
<path d="M3.1443 11.0092C3.26911 11.4495 3.49792 11.8689 3.80993 12.2045C4.37156 12.8126 5.3076 13.3788 6.99248 13.3788C9.46779 13.3788 10.4662 12.3722 10.4662 11.3866C10.4662 9.79292 8.05333 9.41546 5.64041 8.89122C3.2067 8.36697 0.814597 7.33945 0.814597 4.50852C0.814597 2.13892 2.91549 0 6.88847 0C9.6758 0 11.2775 1.13237 12.1927 2.24377C12.7335 2.91481 13.108 3.66972 13.3368 4.48755H10.3622C10.2374 4.173 10.0502 3.83748 9.73821 3.56487C9.23898 3.08257 8.36534 2.62123 6.88847 2.62123C4.64197 2.62123 3.78913 3.37615 3.78913 4.36173C3.78913 5.4941 5.162 6.01835 6.84687 6.35387C9.6966 6.92005 13.4616 7.63303 13.4616 11.2189C13.4616 13.7143 11.2567 15.9581 7.01328 15.9581C3.87233 15.9581 2.10425 14.7418 1.16821 13.4626C0.627384 12.7287 0.252971 11.8899 0.0865631 10.9672H3.1443V11.0092Z" fill="black"/>
</svg>
